# xmcd CD database file
#
# Track frame offsets:
#	150
#	19661
#	43611
#	64063
#	80656
#	99673
#	125555
#	151921
#
# Disc length: 2190 seconds
#
# Revision: 1
# Processed by: cddbd v1.5.2PL0 Copyright (c) Steve Scherf et al.
# Submitted via: CDex 1.70beta2
#
DISCID=61088c08
DTITLE=Pho Trio - ...Ne vous déplause.
DYEAR=2010
DGENRE=Jazz
TTITLE0=L'eau à la bouche
TTITLE1=Intoxicated man
TTITLE2=Couleur café
TTITLE3=La chanson de prévert
TTITLE4=La noyée
TTITLE5=Le poinçonneur des lilas
TTITLE6=l'alcool
TTITLE7=Le talkie-walkie
EXTD=YEAR: 2010
EXTT0=
EXTT1=
EXTT2=
EXTT3=
EXTT4=
EXTT5=
EXTT6=
EXTT7=
PLAYORDER=
